<svg xmlns="http://www.w3.org/2000/svg" viewBox="0 0 64 64" fill="none">
  <defs>
    <linearGradient id="frame" x1="8" y1="6" x2="58" y2="60" gradientUnits="userSpaceOnUse">
      <stop offset="0" stop-color="#1A1A2E"/>
      <stop offset="1" stop-color="#12172A"/>
    </linearGradient>
    <linearGradient id="copper" x1="22" y1="16" x2="41" y2="54" gradientUnits="userSpaceOnUse">
      <stop offset="0" stop-color="#D9AE88"/>
      <stop offset="0.52" stop-color="#B87333"/>
      <stop offset="1" stop-color="#7D4A22"/>
    </linearGradient>
    <linearGradient id="cyan" x1="32" y1="10" x2="50" y2="31" gradientUnits="userSpaceOnUse">
      <stop offset="0" stop-color="#A3FAFF"/>
      <stop offset="0.45" stop-color="#22E6FF"/>
      <stop offset="1" stop-color="#119CB6"/>
    </linearGradient>
    <radialGradient id="glow" cx="0" cy="0" r="1" gradientUnits="userSpaceOnUse" gradientTransform="translate(47 15) rotate(90) scale(16)">
      <stop offset="0" stop-color="#22E6FF" stop-opacity="0.35"/>
      <stop offset="1" stop-color="#22E6FF" stop-opacity="0"/>
    </radialGradient>
  </defs>
  <rect x="4" y="4" width="56" height="56" rx="18" fill="url(#frame)"/>
  <rect x="4.75" y="4.75" width="54.5" height="54.5" rx="17.25" stroke="#22314C" stroke-width="1.5"/>
  <circle cx="47" cy="15" r="14" fill="url(#glow)"/>
  <path d="M22 48C22 40.83 26.38 36.5 32 36.5C37.62 36.5 42 40.83 42 48V52H22V48Z" fill="#B87333" fill-opacity="0.12"/>
  <path d="M24.5 48.5C24.5 42.47 27.67 39 32 39C36.33 39 39.5 42.47 39.5 48.5" stroke="url(#copper)" stroke-width="2.6" stroke-linecap="round"/>
  <path d="M26.5 37V24.35C26.5 22.77 27.3 21.31 28.62 20.45L31.05 18.86C31.62 18.49 32.38 18.49 32.95 18.86L35.38 20.45C36.7 21.31 37.5 22.77 37.5 24.35V37" stroke="url(#copper)" stroke-width="2.6" stroke-linecap="round" stroke-linejoin="round"/>
  <path d="M32 18.2V13.7C32 10.89 34.29 8.6 37.1 8.6H43.4" stroke="url(#cyan)" stroke-width="2.6" stroke-linecap="round"/>
  <path d="M43.4 8.6C47.71 8.6 51.2 12.09 51.2 16.4V24.8C51.2 27.45 49.05 29.6 46.4 29.6H42.1" stroke="url(#cyan)" stroke-width="2.6" stroke-linecap="round"/>
  <path d="M42.1 29.6L38.8 33" stroke="url(#cyan)" stroke-width="2.6" stroke-linecap="round"/>
  <circle cx="46.8" cy="15" r="2.8" fill="#22E6FF"/>
  <path d="M26 26H38" stroke="#F5F7FC" stroke-opacity="0.22" stroke-width="1.4" stroke-linecap="round"/>
  <path d="M28 44.5H36" stroke="#22E6FF" stroke-opacity="0.55" stroke-width="1.6" stroke-linecap="round"/>
</svg>
